     <svg width="50" height="34" viewBox="0 0 50 34" fill="none" xmlns="http://www.w3.org/2000/svg">
<path d="M5.34142 32.0946L5.58816 31.9658C5.63414 32.05 5.6934 32.1238 5.76595 32.1876C5.8385 32.2511 5.91643 32.3007 6.00119 32.3363C6.08524 32.3723 6.17036 32.3984 6.25656 32.4151C6.34275 32.4315 6.43147 32.4397 6.52233 32.4397C6.59847 32.4397 6.67282 32.4351 6.74429 32.4269C6.81648 32.4187 6.89119 32.4027 6.96877 32.3791C7.04634 32.3556 7.11423 32.3246 7.17169 32.2868C7.22844 32.249 7.27585 32.1976 7.31284 32.1331C7.34947 32.0685 7.36815 31.994 7.36815 31.9095C7.36815 31.8571 7.35953 31.8089 7.34229 31.7658C7.32469 31.7219 7.30314 31.6838 7.27585 31.6517C7.24891 31.6192 7.21228 31.5889 7.16594 31.5622C7.11997 31.5354 7.07472 31.5126 7.0309 31.4941C6.98708 31.4759 6.93177 31.458 6.86641 31.4413C6.79996 31.4249 6.74178 31.4121 6.6915 31.4028C6.64121 31.3932 6.57944 31.3814 6.50689 31.3678C6.41207 31.3511 6.33593 31.3372 6.27775 31.3254C6.21956 31.3147 6.14845 31.2979 6.06548 31.2755C5.9818 31.2534 5.9132 31.2298 5.8604 31.2063C5.80689 31.1824 5.75122 31.1517 5.69411 31.1154C5.63701 31.0779 5.59175 31.0369 5.55799 30.992C5.52459 30.9471 5.49658 30.8936 5.47503 30.8312C5.45312 30.7691 5.44235 30.701 5.44235 30.6261V30.6169C5.44342 30.5092 5.46497 30.4118 5.50735 30.3244C5.55153 30.2346 5.60971 30.1622 5.68047 30.1062C5.75122 30.0506 5.83491 30.0035 5.9308 29.9657C6.02705 29.9276 6.12295 29.9012 6.21992 29.8858C6.31653 29.8705 6.4153 29.8627 6.51659 29.8627C7.00684 29.8623 7.35773 30.0221 7.56928 30.3426L7.33547 30.4714C7.25861 30.3508 7.14619 30.2631 6.99822 30.2082C6.84953 30.1536 6.69078 30.1248 6.52054 30.1223C6.42464 30.1223 6.33306 30.1298 6.24722 30.1458C6.16066 30.1615 6.07662 30.1872 5.99401 30.2228C5.91176 30.2585 5.84604 30.3116 5.79755 30.3815C5.74871 30.4521 5.72464 30.5356 5.72464 30.6333C5.72464 30.6967 5.73901 30.7538 5.76774 30.8026C5.79647 30.8522 5.83311 30.8929 5.87729 30.9253C5.9211 30.9581 5.98252 30.9866 6.06225 31.0116C6.14198 31.0369 6.21274 31.0565 6.2738 31.0708C6.33521 31.0854 6.42105 31.1011 6.53095 31.1175C6.61284 31.1336 6.68144 31.1467 6.73926 31.1582C6.79601 31.1692 6.86246 31.1838 6.93824 31.2013C7.01366 31.2195 7.07723 31.2387 7.13003 31.2598C7.18247 31.2812 7.23849 31.3058 7.2974 31.3347C7.3563 31.3643 7.40514 31.3974 7.44393 31.4345C7.48308 31.4716 7.51864 31.5137 7.5524 31.5597C7.58544 31.6064 7.61058 31.6599 7.62638 31.7205C7.64219 31.7808 7.65009 31.8471 7.65009 31.9184C7.64865 32.0382 7.62567 32.1448 7.57933 32.2376C7.53336 32.3306 7.4741 32.4062 7.40047 32.4647C7.32685 32.5228 7.23957 32.5699 7.13865 32.6073C7.03772 32.6441 6.9368 32.6701 6.83624 32.6847C6.73567 32.6997 6.63116 32.7072 6.52269 32.7072C6.26302 32.7072 6.02741 32.6573 5.81551 32.5571C5.60361 32.4572 5.44558 32.3032 5.34142 32.0946Z" fill="white"/>
<path d="M8.36204 32.6616L8.36024 29.9034H8.63069L8.63105 31.0534C8.78117 30.8152 9.01247 30.6932 9.32494 30.6875C9.59575 30.6875 9.80262 30.767 9.94413 30.9261C10.0864 31.0844 10.1575 31.2994 10.1578 31.5701L10.1585 32.6609H9.88774L9.88738 31.5701C9.88738 31.3704 9.8371 31.2149 9.73725 31.1051C9.63705 30.9949 9.48943 30.94 9.29405 30.94C9.1019 30.94 8.94423 31.0045 8.82068 31.1332C8.69713 31.2623 8.63536 31.4224 8.63608 31.6132L8.63643 32.6616H8.36204Z" fill="white"/>
<path d="M11.1045 31.6849C11.1045 31.9102 11.1777 32.0932 11.3239 32.2344C11.4701 32.3756 11.6504 32.4458 11.8648 32.4458C11.9887 32.4458 12.1011 32.4241 12.2017 32.3809C12.3022 32.3374 12.3834 32.2797 12.4456 32.2091C12.507 32.1378 12.5547 32.0564 12.5881 31.9648C12.6215 31.8735 12.6384 31.7804 12.6384 31.6856C12.6384 31.5907 12.6215 31.4984 12.5881 31.4067C12.5544 31.3158 12.5066 31.2342 12.4445 31.1636C12.3827 31.0922 12.3012 31.0352 12.2006 30.9917C12.1 30.9482 11.9876 30.9264 11.8641 30.9268C11.6497 30.9268 11.4694 30.9974 11.3232 31.1382C11.1774 31.2787 11.1045 31.4613 11.1045 31.6849ZM10.834 31.6849C10.834 31.487 10.88 31.3108 10.9719 31.1571C11.0639 31.0034 11.1867 30.8868 11.3408 30.8062C11.4945 30.7264 11.6665 30.6864 11.8558 30.6864C12.0178 30.6864 12.1712 30.7221 12.3159 30.7938C12.461 30.8651 12.5695 30.9671 12.642 31.0986V30.7128H12.8963L12.8977 32.6591H12.647L12.6467 32.2693C12.5641 32.4088 12.4502 32.515 12.3062 32.5881C12.1625 32.6612 12.0113 32.698 11.8533 32.698C11.5638 32.698 11.3214 32.6052 11.1267 32.4191C10.9317 32.233 10.8344 31.9883 10.834 31.6849Z" fill="white"/>
<path d="M13.7294 32.6583L13.728 30.7121L13.9826 30.7117L13.9984 31.0309C14.0591 30.91 14.1467 30.8219 14.2613 30.7652C14.3755 30.7092 14.4994 30.6807 14.6323 30.6807C14.7221 30.6807 14.8011 30.691 14.8712 30.7121C14.9408 30.7335 15.0123 30.7684 15.0863 30.8173L14.9602 31.038C14.859 30.9681 14.744 30.9328 14.6165 30.9328C14.4431 30.9353 14.2965 30.9949 14.1776 31.1111C14.0584 31.2273 13.9991 31.3736 13.9991 31.5501L13.9999 32.6583H13.7294Z" fill="white"/>
<path d="M15.6219 32.6571H15.8923L15.8909 30.7029L15.6204 30.7033L15.6219 32.6571ZM15.6269 30.2397C15.587 30.2062 15.5669 30.1599 15.5669 30.101C15.5669 30.0425 15.5867 29.9958 15.6269 29.9627C15.6667 29.9292 15.7109 29.9124 15.759 29.9124C15.8072 29.9124 15.8514 29.9291 15.8916 29.9623C15.9314 29.9958 15.9516 30.0422 15.9516 30.1007C15.9516 30.1599 15.9314 30.2062 15.8916 30.2394C15.8514 30.2729 15.8075 30.2897 15.759 30.2897C15.7113 30.2897 15.6671 30.2729 15.6269 30.2397Z" fill="white"/>
<path d="M16.724 32.6565L16.7226 30.7102L16.9815 30.7099L16.9894 31.0404C17.0695 30.9199 17.1701 30.8297 17.2911 30.7694C17.4122 30.7088 17.5433 30.6788 17.6841 30.6788C17.9531 30.6788 18.1693 30.7548 18.3341 30.9074C18.4986 31.0597 18.5809 31.2775 18.5809 31.561L18.5812 32.655L18.2993 32.6558L18.2986 31.5674C18.2986 31.3613 18.2407 31.2041 18.1255 31.0946C18.0105 30.9855 17.8514 30.9306 17.6485 30.9309C17.4567 30.932 17.2994 30.9962 17.1769 31.1238C17.0548 31.2515 16.9938 31.4095 16.9938 31.5988L16.9945 32.6565H16.724Z" fill="white"/>
<path d="M23.3888 32.6524L23.387 29.8942H23.6693L23.67 31.1365L24.9842 29.8934L25.3196 29.8931V29.9145L23.9408 31.2192L25.4421 32.6317V32.651L25.0908 32.6517L23.6704 31.3173L23.6715 32.6524H23.3888Z" fill="white"/>
<path d="M25.9639 32.6507L25.9625 30.7045L26.2214 30.7041L26.2297 31.0347C26.3098 30.9142 26.41 30.8239 26.531 30.7637C26.6521 30.7031 26.7832 30.6731 26.924 30.6731C27.193 30.6731 27.4095 30.7491 27.574 30.9017C27.7385 31.0539 27.8208 31.2718 27.8208 31.5553L27.8218 32.6493L27.5392 32.65L27.5388 31.5617C27.5385 31.3556 27.4806 31.1984 27.3657 31.0889C27.2504 30.9798 27.0913 30.9249 26.8884 30.9252C26.6966 30.9263 26.5393 30.9905 26.4168 31.1181C26.2947 31.2458 26.2337 31.4038 26.2337 31.5931L26.2344 32.6507H25.9639Z" fill="white"/>
<path d="M28.7635 31.6777C28.7635 31.9031 28.8343 32.0839 28.9751 32.2215C29.1159 32.3592 29.2976 32.4276 29.5203 32.4276C29.7451 32.4276 29.9272 32.3581 30.0665 32.2204C30.2063 32.0832 30.2759 31.9016 30.2756 31.677C30.2756 31.4527 30.2045 31.2687 30.0633 31.1243C29.9211 30.9799 29.7401 30.9078 29.5188 30.9082C29.298 30.9082 29.1166 30.9806 28.9754 31.1254C28.8336 31.2694 28.7635 31.4541 28.7635 31.6777ZM28.4931 31.6777C28.4931 31.3785 28.5886 31.1353 28.7808 30.9485C28.9726 30.7613 29.2186 30.6679 29.5188 30.6675C29.813 30.6675 30.0579 30.7613 30.2526 30.9496C30.4483 31.1375 30.546 31.3803 30.546 31.677C30.5464 31.9733 30.4498 32.2144 30.2569 32.4005C30.064 32.5863 29.818 32.679 29.5203 32.679C29.225 32.6797 28.9805 32.587 28.7854 32.4023C28.5908 32.2172 28.4931 31.9762 28.4931 31.6777Z" fill="white"/>
<path d="M31.0791 30.7011H31.3772L31.9447 32.3582L32.5107 30.7004H32.7237L33.2926 32.3571L33.8543 30.6993H34.152L33.4506 32.6499L33.1259 32.6502L32.7984 31.88L32.5911 31.2103L32.3853 31.8707L32.0941 32.6506H31.787L31.0791 30.7011Z" fill="white"/>
<path d="M34.8461 32.6452L34.8443 29.887H35.1147L35.1165 32.6452H34.8461Z" fill="white"/>
<path d="M36.1294 31.5578L37.6098 31.5571C37.6055 31.3531 37.5344 31.1927 37.3954 31.0771C37.2567 30.9612 37.0833 30.9035 36.8739 30.9035C36.6717 30.9035 36.5036 30.9613 36.3696 31.0757C36.2357 31.1909 36.1556 31.351 36.1294 31.5578ZM35.8467 31.6677C35.8467 31.3763 35.943 31.1367 36.1351 30.947C36.3276 30.7576 36.5726 30.6635 36.8699 30.6628C36.9906 30.6628 37.1037 30.6767 37.2086 30.7049C37.3135 30.733 37.4097 30.7765 37.497 30.8357C37.5839 30.8946 37.6576 30.9677 37.7168 31.0547C37.7757 31.142 37.8185 31.2469 37.8447 31.3703C37.8619 31.4494 37.8706 31.5346 37.8706 31.6259C37.8706 31.6759 37.8684 31.7268 37.8626 31.7796L36.1294 31.781C36.1466 31.9793 36.226 32.1369 36.366 32.2532C36.5072 32.3687 36.6792 32.4268 36.8829 32.4268C37.0104 32.4261 37.1379 32.4029 37.2654 32.3548C37.3929 32.3081 37.4906 32.2421 37.5592 32.159L37.7395 32.3163C37.6454 32.4318 37.52 32.521 37.3641 32.5841C37.2072 32.6468 37.047 32.6786 36.8829 32.6786C36.5801 32.6789 36.3319 32.5869 36.138 32.4033C35.944 32.2193 35.8474 31.974 35.8467 31.6677Z" fill="white"/>
<path d="M38.693 31.6697C38.693 31.9054 38.7645 32.0905 38.9067 32.2242C39.0485 32.3583 39.2281 32.4253 39.4458 32.425C39.6627 32.425 39.8426 32.3543 39.9863 32.2131C40.1296 32.0716 40.2011 31.889 40.2011 31.6647C40.2011 31.4458 40.1282 31.2657 39.9834 31.1248C39.8391 30.9833 39.6588 30.9134 39.4443 30.9134C39.3035 30.9134 39.1775 30.9415 39.0654 30.9972C38.9534 31.0532 38.8636 31.1391 38.7953 31.2553C38.7271 31.3712 38.693 31.5096 38.693 31.6697ZM38.5572 32.216C38.4674 32.0623 38.4225 31.8797 38.4225 31.6697C38.4225 31.4597 38.4667 31.2771 38.5565 31.1227C38.6456 30.9679 38.7659 30.8524 38.9164 30.7761C39.0669 30.6998 39.2378 30.6616 39.4285 30.6616C39.5945 30.6613 39.7489 30.6973 39.8926 30.7689C40.0362 30.8406 40.1433 30.9447 40.2144 31.0824L40.214 29.8843L40.4845 29.8835L40.4863 32.6418H40.2233L40.2154 32.2517C40.1364 32.3872 40.0265 32.492 39.8857 32.5662C39.7449 32.64 39.593 32.6767 39.43 32.6771C39.2389 32.6771 39.0679 32.6389 38.9174 32.5615C38.7666 32.4849 38.6463 32.3697 38.5572 32.216Z" fill="white"/>
<path d="M44.0708 31.5527L45.5512 31.552C45.5473 31.348 45.4758 31.1876 45.3368 31.072C45.1986 30.9561 45.0247 30.8984 44.8153 30.8984C44.6135 30.8987 44.445 30.9561 44.3111 31.0709C44.1771 31.1858 44.097 31.3462 44.0708 31.5527ZM43.7889 31.6625C43.7881 31.3716 43.8844 31.1316 44.0769 30.9422C44.2683 30.7525 44.5136 30.6584 44.8114 30.6584C44.9321 30.6577 45.0448 30.6719 45.1501 30.7001C45.2549 30.7283 45.3516 30.7718 45.4385 30.8306C45.5261 30.8894 45.5987 30.9625 45.6583 31.0496C45.7172 31.1369 45.7599 31.2421 45.7861 31.3651C45.8034 31.445 45.812 31.5295 45.812 31.6212C45.812 31.6711 45.8091 31.7221 45.8041 31.7745L44.0708 31.7759C44.088 31.9749 44.1674 32.1318 44.3082 32.2481C44.4486 32.3639 44.6207 32.4217 44.8243 32.4217C44.9518 32.4217 45.0793 32.3978 45.2068 32.3504C45.3343 32.303 45.432 32.2374 45.5006 32.1539L45.6813 32.3115C45.5872 32.4267 45.4615 32.5158 45.3049 32.579C45.1486 32.6417 44.9888 32.6735 44.8243 32.6738C44.5215 32.6738 44.2734 32.5818 44.0798 32.3982C43.8855 32.2142 43.7889 31.9692 43.7889 31.6625Z" fill="white"/>
<path d="M41.4592 31.6082C41.4592 31.171 41.7667 30.8658 42.2077 30.8658C42.694 30.8651 42.9483 31.2395 42.9486 31.6089C42.9486 31.7031 42.9332 31.7936 42.9027 31.8799C42.9016 31.8828 42.9005 31.8856 42.8994 31.8881C42.8984 31.8906 42.8973 31.8928 42.8962 31.8949C42.8642 31.9791 42.8204 32.054 42.7655 32.116C42.6294 32.2715 42.4368 32.3538 42.2084 32.3538C41.7674 32.3542 41.4596 32.0475 41.4592 31.6082ZM42.9562 30.7214L42.9483 31.0416L42.9264 31.0134C42.926 31.0124 42.9016 30.9803 42.8563 30.9382C42.851 30.9332 42.8463 30.9286 42.8413 30.9239C42.8229 30.9075 42.8014 30.8911 42.7834 30.8769L42.773 30.8694C42.7676 30.8651 42.7622 30.8612 42.7569 30.8572C42.7375 30.8437 42.7159 30.8309 42.6901 30.8159C42.6865 30.8137 42.6832 30.8116 42.6793 30.8095C42.676 30.8073 42.6728 30.8055 42.6696 30.8034C42.5999 30.7652 42.5202 30.7342 42.4325 30.7114C42.4164 30.7071 42.402 30.7036 42.3869 30.7L42.3815 30.6989C42.3611 30.6946 42.3417 30.69 42.3201 30.6868L42.3075 30.6843C42.2989 30.6829 42.2903 30.6814 42.2831 30.6807C42.2357 30.6736 42.2052 30.6732 42.2052 30.6732C42.2052 30.6732 42.1711 30.6722 42.1517 30.6718C41.8683 30.6722 41.6302 30.7581 41.4628 30.9204C41.2944 31.0837 41.2057 31.3215 41.2057 31.6082C41.206 31.9095 41.2962 32.1556 41.466 32.3203C41.6169 32.4655 41.8292 32.5443 42.0802 32.5553C42.0802 32.5553 42.3305 32.5831 42.5755 32.4972C42.7357 32.4412 42.8527 32.356 42.9293 32.238L42.9174 32.9404C42.9178 33.1248 42.8441 33.2806 42.7051 33.3897C42.5794 33.4874 42.4117 33.5392 42.221 33.5392C41.8687 33.5395 41.5885 33.3519 41.5203 33.0717H41.2294C41.2944 33.4999 41.6909 33.7866 42.2214 33.7863C42.8208 33.7856 43.208 33.4546 43.2076 32.9429L43.2062 30.721L42.9562 30.7214Z" fill="white"/>
<path d="M19.5106 31.622C19.5106 31.1848 19.818 30.8795 20.2591 30.8795C20.7454 30.8788 20.9997 31.2532 20.9997 31.6227C21 31.7168 20.9846 31.8074 20.9541 31.8933C20.953 31.8965 20.9519 31.8994 20.9508 31.9019C20.9497 31.9044 20.9487 31.9065 20.9476 31.9086C20.9156 31.9928 20.8715 32.0677 20.8169 32.1297C20.6804 32.2852 20.4882 32.3672 20.2598 32.3676C19.8188 32.3676 19.5106 32.0613 19.5106 31.622ZM21.0076 30.7351L20.9997 31.0553L20.9778 31.0268C20.9778 31.0268 20.9523 30.994 20.9077 30.9516C20.9023 30.9469 20.8977 30.9423 20.8926 30.9377C20.8743 30.9209 20.8528 30.9049 20.8348 30.8906L20.8244 30.8831C20.819 30.8788 20.8133 30.8749 20.8075 30.8706C20.7888 30.8574 20.7673 30.8446 20.7411 30.8289C20.7378 30.8275 20.7339 30.8253 20.7307 30.8232C20.7274 30.821 20.7242 30.8189 20.721 30.8171C20.6513 30.779 20.5716 30.748 20.4839 30.7251C20.4678 30.7209 20.4527 30.7169 20.4383 30.7137L20.4329 30.7126C20.4124 30.708 20.3931 30.7037 20.3715 30.7002L20.3589 30.698C20.3503 30.6966 20.3417 30.6952 20.3345 30.6945C20.2867 30.6873 20.2566 30.687 20.2566 30.687C20.2566 30.687 20.2225 30.6859 20.2027 30.6855C19.9197 30.6859 19.6816 30.7718 19.5142 30.9341C19.3457 31.0974 19.257 31.3353 19.257 31.622C19.257 31.9233 19.3475 32.169 19.5174 32.3341C19.6683 32.4792 19.8805 32.558 20.1316 32.5687C20.1316 32.5687 20.3812 32.5969 20.6269 32.5109C20.7867 32.4542 20.9041 32.3697 20.9806 32.2517L20.9688 32.9542C20.9691 33.1385 20.8955 33.294 20.7565 33.4031C20.6301 33.5008 20.4631 33.5529 20.2724 33.5529C19.92 33.5532 19.6399 33.3657 19.5717 33.0854H19.2807C19.3458 33.5137 19.7423 33.8004 20.2727 33.8C20.8722 33.7993 21.2593 33.4684 21.259 32.9567L21.2575 30.7348L21.0076 30.7351Z" fill="white"/>
<path d="M1.85325 0.997188L0.000718264 0.998258L0 0.0229857C1.68553 0.0215593 3.11246 0.0208462 4.80661 0.0197764L4.80733 0.995049L2.95479 0.996475L2.95767 5.71166L1.85649 5.71201L1.85325 0.997188Z" fill="white"/>
<path d="M6.33262 0.0187702L6.33406 2.24638C6.70076 1.78282 7.1515 1.6441 7.61912 1.64375C8.7871 1.64303 9.30501 2.41505 9.30573 3.59394L9.30717 5.7078L8.28895 5.70815L8.28787 3.60249C8.28716 2.87113 7.8946 2.56232 7.35227 2.56268C6.7514 2.56304 6.33477 3.05905 6.33513 3.66062L6.33657 5.70958L5.31836 5.71029L5.31477 0.0194833L6.33262 0.0187702Z" fill="white"/>
<path d="M13.1849 3.23365C13.1177 2.71374 12.7004 2.45379 12.1161 2.45414C11.5655 2.45414 11.1151 2.71481 10.9653 3.23507L13.1849 3.23365ZM10.9492 4.0563C11.016 4.55196 11.4588 4.90962 12.1764 4.90926C12.5517 4.9089 13.0438 4.77019 13.2776 4.53449L13.9287 5.15994C13.4952 5.59926 12.7859 5.81108 12.1599 5.81143C10.7412 5.81215 9.89826 4.95918 9.89754 3.67475C9.89646 2.45557 10.7473 1.57693 12.0823 1.57622C13.4593 1.57551 14.3191 2.40386 14.1618 4.05416L10.9492 4.0563Z" fill="white"/>
<path d="M14.451 11.4111L14.4614 26.6514L11.5569 26.6532L11.5529 20.3947L5.94251 20.3972L5.94035 17.4182L11.5504 17.4157L11.5475 11.4129L14.451 11.4111ZM4.69228 26.6578L1.76622 26.6596L1.75581 11.4193L4.68294 11.4176L4.69228 26.6578Z" fill="white"/>
<path d="M32.2853 11.045L32.2918 20.669C32.2918 21.5701 32.1169 22.4491 31.7868 23.2425C31.4578 23.9703 30.9959 24.6147 30.3581 25.1931C29.3463 26.1159 28.0052 26.6743 26.4867 26.8255L26.4849 24.017C27.2995 23.9311 27.937 23.6736 28.4215 23.2443C28.9929 22.7297 29.3003 21.8069 29.2996 20.6497L29.2928 11.0468L32.2853 11.045ZM25.2329 26.8266C23.714 26.72 22.3284 26.1412 21.3155 25.1995C20.6992 24.6211 20.2151 23.9568 19.9278 23.2279C19.5977 22.499 19.421 21.6418 19.4199 20.6772L19.4145 11.0532L22.3844 11.0514L22.3909 20.6544C22.3919 21.7905 22.722 22.7123 23.2941 23.2261C23.7571 23.6761 24.4165 23.9322 25.2318 24.0398L25.2329 26.8266Z" fill="white"/>
<path d="M49.4 21.4749C49.4 22.3539 49.2251 23.1466 48.8735 23.8334C48.5872 24.3483 48.2133 24.7984 47.7522 25.1628C46.8722 25.8717 45.6407 26.2786 44.4091 26.2796L41.4159 26.2814L41.4141 23.388L44.3625 23.3863C44.5384 23.3863 45.0452 23.3435 45.5286 23.1074C46.1665 22.7851 46.5181 22.2495 46.5181 21.5416C46.517 21.0267 46.2534 20.5984 45.7467 20.2989C45.3724 20.0628 44.8883 19.9134 44.426 19.9134L41.4123 19.9152L41.4105 17.3435L43.6761 17.3417C44.1822 17.3417 44.6225 17.1912 44.9303 16.9334C45.2826 16.6121 45.4802 16.14 45.4802 15.5188C45.4802 15.0899 45.3473 14.7472 45.0826 14.4901C44.7302 14.126 44.0924 13.9338 43.234 13.9345L41.4084 13.9356L41.4066 11.0411L43.2545 11.0404C44.6404 11.0394 45.7409 11.2961 46.5993 11.8099C47.7655 12.516 48.3825 13.7159 48.3843 15.3887C48.3854 17.2533 47.3083 18.1972 47.3083 18.1972C47.3083 18.1972 49.3982 18.946 49.4 21.4749ZM40.1621 26.2825L37.2576 26.2843L37.2483 11.044L40.1517 11.0422L40.1621 26.2825Z" fill="white"/>
<path d="M30.3555 0.58123C30.3559 1.35075 29.1581 1.35182 29.1574 0.581943C29.157 -0.187934 30.3552 -0.188647 30.3555 0.58123Z" fill="white"/>
<path d="M37.0248 0.577051C37.0252 1.34657 35.8274 1.34764 35.8271 0.577764C35.8263 -0.192112 37.0245 -0.192826 37.0248 0.577051Z" fill="white"/>
<path d="M18.0473 0.987068L16.1947 0.988137L16.194 0.0128652C17.8796 0.0117954 19.3065 0.0107257 21.0006 0.00965595L21.0014 0.985285L19.1485 0.986354L19.1517 5.70154L18.0505 5.70189L18.0473 0.987068Z" fill="white"/>
<path d="M21.5853 1.69214L21.6607 2.15535C21.9775 1.65934 22.4027 1.58588 22.8204 1.58552C23.246 1.58552 23.6551 1.74777 23.8803 1.96707L23.4216 2.82895C23.2133 2.65886 23.0212 2.56935 22.6871 2.56971C22.1531 2.57007 21.661 2.84642 21.6618 3.58599L21.6632 5.70021L20.6453 5.70056L20.6425 1.6925L21.5853 1.69214Z" fill="white"/>
<path d="M24.9741 3.6817C24.9745 4.44587 25.5172 4.90088 26.1931 4.90017C27.7953 4.89945 27.7935 2.46894 26.1913 2.47001C25.5154 2.47037 24.9738 2.91753 24.9741 3.6817ZM27.443 1.68016L28.4188 1.67981L28.4217 5.68751L27.462 5.68823L27.4114 5.10307C27.1783 5.57448 26.5361 5.80269 26.0767 5.81089C24.8585 5.81981 23.957 5.08916 23.9559 3.68241C23.9552 2.30027 24.8976 1.57675 26.0994 1.58388C26.6499 1.58353 27.1758 1.83492 27.4096 2.23323L27.443 1.68016Z" fill="white"/>
<path d="M29.1939 1.58171L29.1967 5.69497L30.2146 5.69426L30.2121 1.581L29.1939 1.58171Z" fill="white"/>
<path d="M34.078 5.69212L34.0766 3.55401C34.0762 2.9446 33.7339 2.48139 33.0828 2.48175C32.4568 2.4821 32.0319 2.99452 32.0322 3.60393L32.0337 5.69355L31.0237 5.6939L31.0216 1.6377L31.931 1.63699L31.9981 2.18186C32.4151 1.78283 32.8321 1.57958 33.3496 1.57922C34.3176 1.57851 35.0937 2.28527 35.0948 3.54545L35.0962 5.69141L34.078 5.69212Z" fill="white"/>
<path d="M35.8853 1.57758L35.8882 5.69084L36.906 5.69012L36.9035 1.57686L35.8853 1.57758Z" fill="white"/>
<path d="M40.7691 5.68799L40.7676 3.54988C40.7673 2.94047 40.425 2.47726 39.7738 2.47761C39.1478 2.47797 38.7229 2.99003 38.7233 3.5998L38.7247 5.68941L37.7148 5.68977L37.7126 1.63357L38.622 1.63285L38.6892 2.17772C39.1062 1.7787 39.5232 1.57544 40.0407 1.57508C41.0086 1.57437 41.7848 2.28113 41.7858 3.54132L41.7873 5.68727L40.7691 5.68799Z" fill="white"/>
<path d="M44.4639 4.67187C43.8322 4.67223 43.325 4.24718 43.3247 3.53293C43.3243 2.81868 43.8307 2.40076 44.4625 2.4004C45.9598 2.39933 45.9613 4.67116 44.4639 4.67187ZM45.6316 1.66297L45.601 2.17931C45.3819 1.80739 44.891 1.57204 44.3759 1.5724C43.2528 1.56562 42.3722 2.24207 42.3733 3.53364C42.374 4.84803 43.2166 5.53125 44.3555 5.5227C44.7839 5.51485 45.3489 5.34868 45.5464 4.95786L45.5281 5.98412V5.99304H45.5288C45.5292 6.54611 45.0702 6.85527 44.4862 6.85563C43.9022 6.85598 43.4098 6.51473 43.4094 5.99446L42.3995 5.99518C42.4002 7.07671 43.2934 7.78312 44.4869 7.7824C45.68 7.78169 46.5478 7.09846 46.547 5.99232L46.5442 1.66226L45.6316 1.66297Z" fill="white"/>
</svg>